<svg xmlns="http://www.w3.org/2000/svg" xmlns:xlink="http://www.w3.org/1999/xlink" version="1.2" width="175.00mm" height="100.00mm" viewBox="0.0000 -0.0000 99.5846 56.9055">
<style type="text/css">
<![CDATA[
tspan { white-space: pre; }
]]>
</style>
<g transform="translate(14.2264, 12.3261)">
<line stroke-linejoin="round" stroke-linecap="round" stroke-width="0.1000" stroke="currentColor" x1="0.0500" y1="0" x2="64.5867" y2="0"/>
</g>
<g transform="translate(14.2264, 11.3261)">
<line stroke-linejoin="round" stroke-linecap="round" stroke-width="0.1000" stroke="currentColor" x1="0.0500" y1="0" x2="64.5867" y2="0"/>
</g>
<g transform="translate(14.2264, 10.3261)">
<line stroke-linejoin="round" stroke-linecap="round" stroke-width="0.1000" stroke="currentColor" x1="0.0500" y1="0" x2="64.5867" y2="0"/>
</g>
<g transform="translate(14.2264, 9.3261)">
<line stroke-linejoin="round" stroke-linecap="round" stroke-width="0.1000" stroke="currentColor" x1="0.0500" y1="0" x2="64.5867" y2="0"/>
</g>
<g transform="translate(14.2264, 8.3261)">
<line stroke-linejoin="round" stroke-linecap="round" stroke-width="0.1000" stroke="currentColor" x1="0.0500" y1="0" x2="64.5867" y2="0"/>
</g>
<g transform="translate(66.7410, 10.3261)">
<rect x="0.0000" y="-2.0000" width="0.1900" height="4.0500" ry="0.0000" fill="currentColor"/>
</g>
<g transform="translate(48.6398, 19.3946)">
<rect x="0.0000" y="-2.0500" width="0.1900" height="4.0500" ry="0.0000" fill="currentColor"/>
</g>
<g transform="translate(78.2631, 10.3261)">
<rect x="0.0000" y="-2.0000" width="0.6000" height="4.0500" ry="0.0000" fill="currentColor"/>
</g>
<g transform="translate(77.7731, 10.3261)">
<rect x="0.0000" y="-2.0000" width="0.1900" height="4.0500" ry="0.0000" fill="currentColor"/>
</g>
<g transform="translate(33.2685, 19.3946)">
<rect x="0.0000" y="-2.0500" width="0.1900" height="4.0500" ry="0.0000" fill="currentColor"/>
</g>
<g transform="translate(33.2685, 10.3261)">
<rect x="0.0000" y="-2.0000" width="0.1900" height="4.0500" ry="0.0000" fill="currentColor"/>
</g>
<g transform="translate(66.7410, 19.3946)">
<rect x="0.0000" y="-2.0500" width="0.1900" height="4.0500" ry="0.0000" fill="currentColor"/>
</g>
<g transform="translate(66.7410, 3.8453)">
<rect x="0.0000" y="8.5308" width="0.1900" height="5.0185" ry="0.0000" fill="currentColor"/>
</g>
<g transform="translate(48.6398, 10.3261)">
<rect x="0.0000" y="-2.0000" width="0.1900" height="4.0500" ry="0.0000" fill="currentColor"/>
</g>
<g transform="translate(78.2631, 19.3946)">
<rect x="0.0000" y="-2.0500" width="0.6000" height="4.0500" ry="0.0000" fill="currentColor"/>
</g>
<g transform="translate(77.7731, 19.3946)">
<rect x="0.0000" y="-2.0500" width="0.1900" height="4.0500" ry="0.0000" fill="currentColor"/>
</g>
<g transform="translate(33.2685, 3.8453)">
<rect x="0.0000" y="8.5308" width="0.1900" height="5.0185" ry="0.0000" fill="currentColor"/>
</g>
<g transform="translate(48.6398, 3.8453)">
<rect x="0.0000" y="8.5308" width="0.1900" height="5.0185" ry="0.0000" fill="currentColor"/>
</g>
<g transform="translate(78.2631, 3.8453)">
<rect x="0.0000" y="8.5308" width="0.6000" height="5.0185" ry="0.0000" fill="currentColor"/>
</g>
<g transform="translate(77.7731, 3.8453)">
<rect x="0.0000" y="8.5308" width="0.1900" height="5.0185" ry="0.0000" fill="currentColor"/>
</g>
<g transform="translate(14.2264, 21.3946)">
<line stroke-linejoin="round" stroke-linecap="round" stroke-width="0.1000" stroke="currentColor" x1="0.0500" y1="0" x2="64.5867" y2="0"/>
</g>
<g transform="translate(14.2264, 20.3946)">
<line stroke-linejoin="round" stroke-linecap="round" stroke-width="0.1000" stroke="currentColor" x1="0.0500" y1="0" x2="64.5867" y2="0"/>
</g>
<g transform="translate(14.2264, 19.3946)">
<line stroke-linejoin="round" stroke-linecap="round" stroke-width="0.1000" stroke="currentColor" x1="0.0500" y1="0" x2="64.5867" y2="0"/>
</g>
<g transform="translate(14.2264, 18.3946)">
<line stroke-linejoin="round" stroke-linecap="round" stroke-width="0.1000" stroke="currentColor" x1="0.0500" y1="0" x2="64.5867" y2="0"/>
</g>
<g transform="translate(14.2264, 17.3946)">
<line stroke-linejoin="round" stroke-linecap="round" stroke-width="0.1000" stroke="currentColor" x1="0.0500" y1="0" x2="64.5867" y2="0"/>
</g>
<g transform="translate(61.9860, 17.8946)">
<path transform="scale(0.0025, -0.0025)" d="M0 112c0 13 8 25 20 30l34 13v148c0 13 10 24 23 24s24 -11 24 -24v-129l73 29v148c0 13 11 24 24 24s23 -11 23 -24v-129l10 4c4 2 8 2 12 2c17 0 32 -14 32 -32v-46c0 -13 -8 -24 -20 -29l-34 -14v-148l10 4c4 2 8 3 12 3c17 0 32 -14 32 -32v-46c0 -13 -8 -25 -20 -30
l-34 -13v-148c0 -13 -10 -24 -23 -24s-24 11 -24 24v129l-73 -29v-148c0 -13 -11 -24 -24 -24s-23 11 -23 24v129l-10 -4c-4 -2 -8 -2 -12 -2c-17 0 -32 14 -32 32v46c0 13 8 24 20 29l34 14v148l-10 -4c-4 -2 -8 -3 -12 -3c-17 0 -32 14 -32 32v46zM174 89l-73 -30v-148
l73 30v148z" fill="currentColor"/>
</g>
<g transform="translate(63.7795, 19.3946)">
<rect x="-0.0650" y="-3.2850" width="0.1300" height="1.6902" ry="0.0400" fill="currentColor"/>
</g>
<g color="rgb(100.0000%, 0.0000%, 0.0000%)">
<g transform="translate(68.9810, 10.3261)">
<path transform="scale(0.0040, -0.0040)" d="M213 112c-50 0 -69 -43 -69 -88c0 -77 57 -136 134 -136c50 0 69 43 69 88c0 77 -57 136 -134 136zM491 0c0 -43 -34 -75 -72 -96c-53 -29 -114 -40 -174 -40s-120 11 -173 40c-38 21 -72 53 -72 96s34 75 72 96c53 29 113 40 173 40s121 -11 174 -40
c38 -21 72 -53 72 -96z" fill="currentColor"/>
</g>
</g>
<g transform="translate(68.9810, 12.8261)">
<path transform="scale(0.0040, -0.0040)" d="M213 112c-50 0 -69 -43 -69 -88c0 -77 57 -136 134 -136c50 0 69 43 69 88c0 77 -57 136 -134 136zM491 0c0 -43 -34 -75 -72 -96c-53 -29 -114 -40 -174 -40s-120 11 -173 40c-38 21 -72 53 -72 96s34 75 72 96c53 29 113 40 173 40s121 -11 174 -40
c38 -21 72 -53 72 -96z" fill="currentColor"/>
</g>
<g transform="translate(69.0493, 30.9850)">
<path transform="scale(0.0032, -0.0032)" d="M125 125c-16 0 -29 13 -29 29v67h-67c-16 0 -29 13 -29 29s13 29 29 29h67v67c0 16 13 29 29 29s29 -13 29 -29v-67h67c16 0 29 -13 29 -29s-13 -29 -29 -29h-67v-67c0 -16 -13 -29 -29 -29z" fill="currentColor"/>
</g>
<g transform="translate(68.9810, 29.2593)">
<path transform="scale(0.0022, -0.0022)" d="M148 388c-31 0 -52 -52 -52 -77c0 -18 -14 -27 -27 -27s-27 9 -27 27v162c0 18 14 27 27 27s27 -9 27 -27v-16c0 -10 14 -19 22 -19c2 0 4 1 5 3c26 37 55 56 84 56c23 0 46 -12 69 -36c9 -10 22 -14 34 -14c24 0 50 17 68 42c6 8 13 11 21 11c14 0 28 -12 28 -27
c0 -5 -1 -10 -5 -15c-75 -107 -139 -228 -139 -354c0 -24 2 -49 7 -74c0 -2 1 -3 1 -5c0 -14 -12 -26 -25 -26c-2 0 -4 0 -6 1c-22 6 -44 14 -67 14s-44 -8 -66 -14c-3 -1 -6 -1 -8 -1c-14 0 -25 11 -25 23c0 3 1 5 2 8c48 112 113 216 182 316c-9 -2 -19 -3 -28 -3
c-25 0 -48 8 -68 29c-10 10 -22 16 -34 16z" fill="currentColor"/>
</g>
<g transform="translate(69.0743, 26.4593)">
<text font-family="serif" font-size="2.4696" text-anchor="start" fill="currentColor">
<tspan>V</tspan>
</text>
</g>
<g color="rgb(12.9400%, 51.3700%, 19.2200%)">
<g transform="translate(68.9810, 18.8946)">
<path transform="scale(0.0040, -0.0040)" d="M213 112c-50 0 -69 -43 -69 -88c0 -77 57 -136 134 -136c50 0 69 43 69 88c0 77 -57 136 -134 136zM491 0c0 -43 -34 -75 -72 -96c-53 -29 -114 -40 -174 -40s-120 11 -173 40c-38 21 -72 53 -72 96s34 75 72 96c53 29 113 40 173 40s121 -11 174 -40
c38 -21 72 -53 72 -96z" fill="currentColor"/>
</g>
</g>
<g transform="translate(68.9810, 17.8946)">
<path transform="scale(0.0040, -0.0040)" d="M213 112c-50 0 -69 -43 -69 -88c0 -77 57 -136 134 -136c50 0 69 43 69 88c0 77 -57 136 -134 136zM491 0c0 -43 -34 -75 -72 -96c-53 -29 -114 -40 -174 -40s-120 11 -173 40c-38 21 -72 53 -72 96s34 75 72 96c53 29 113 40 173 40s121 -11 174 -40
c38 -21 72 -53 72 -96z" fill="currentColor"/>
</g>
<g transform="translate(56.6715, 29.2593)">
<path transform="scale(0.0022, -0.0022)" d="M204 223c21 13 46 23 59 45c8 14 10 46 31 46c11 0 24 -8 24 -25v-110h70c18 0 27 -14 27 -27s-9 -27 -27 -27h-70c2 -45 36 -82 80 -82c14 0 22 -10 22 -21s-8 -22 -22 -22c-49 0 -96 14 -145 14s-97 -14 -146 -14c-14 0 -21 11 -21 22s7 21 21 21c44 0 79 37 81 82
h-134c-43 0 -57 25 -57 42c0 5 1 10 3 12c73 81 123 182 123 291c0 17 11 31 25 31c2 0 4 0 6 -1c22 -6 43 -14 66 -14s45 8 67 14c3 1 6 1 9 1c15 0 26 -11 26 -21c0 -4 -1 -7 -4 -10l-264 -291h134v4c0 16 3 32 16 40z" fill="currentColor"/>
</g>
<g transform="translate(55.4213, 26.4593)">
<text font-family="serif" font-size="2.4696" text-anchor="start" fill="currentColor">
<tspan> ii</tspan>
</text>
</g>
<g transform="translate(58.0016, 25.3368)">
<text font-family="serif" font-size="1.7461" text-anchor="start" fill="currentColor">
<tspan>⌀ </tspan>
</text>
</g>
<g transform="translate(56.6715, 17.3946)">
<path transform="scale(0.0040, -0.0040)" d="M218 136c55 0 108 -28 108 -89c0 -71 -55 -121 -102 -149c-35 -21 -75 -34 -116 -34c-55 0 -108 28 -108 89c0 71 55 121 102 149c35 21 75 34 116 34z" fill="currentColor"/>
</g>
<g transform="translate(56.6715, 12.8261)">
<path transform="scale(0.0040, -0.0040)" d="M314 65c0 24 -21 41 -42 41c-4 0 -8 0 -12 -1c-31 -9 -78 -40 -115 -64s-84 -53 -104 -78c-7 -8 -10 -18 -10 -28c0 -24 21 -41 42 -41c4 0 8 0 12 1c31 9 77 40 114 64s84 53 104 78c7 8 11 18 11 28zM262 136c46 0 82 -21 82 -71c0 -19 -4 -39 -10 -57
c-12 -37 -32 -72 -64 -94c-53 -36 -113 -50 -187 -50c-46 0 -83 21 -83 71c0 19 5 39 11 57c12 37 31 72 63 94c53 36 114 50 188 50z" fill="currentColor"/>
</g>
<g color="rgb(100.0000%, 0.0000%, 0.0000%)">
<g transform="translate(56.6715, 10.3261)">
<path transform="scale(0.0040, -0.0040)" d="M218 136c55 0 108 -28 108 -89c0 -71 -55 -121 -102 -149c-35 -21 -75 -34 -116 -34c-55 0 -108 28 -108 89c0 71 55 121 102 149c35 21 75 34 116 34z" fill="currentColor"/>
</g>
</g>
<g transform="translate(56.6715, 30.7593)">
<path transform="scale(0.0022, -0.0022)" d="M190 457c-33 0 -68 -9 -68 -38c0 -19 31 -23 31 -42c0 -28 -22 -51 -50 -51s-51 23 -51 51c0 71 64 123 138 123c93 0 174 -31 174 -113c0 -36 -11 -65 -43 -80c-17 -8 -25 -25 -25 -41s8 -32 25 -40c37 -17 59 -45 59 -85c0 -94 -83 -141 -186 -141
c-84 0 -159 54 -159 133c0 32 26 58 58 58s58 -26 58 -58c0 -22 -36 -26 -36 -48c0 -33 41 -42 79 -42c41 0 57 50 57 98v21c0 44 -3 77 -44 77h-65c-18 0 -27 14 -27 27s9 27 27 27h65c42 0 44 36 44 83v11c0 43 -20 70 -61 70z" fill="currentColor"/>
</g>
<g color="rgb(12.9400%, 51.3700%, 19.2200%)">
<g transform="translate(49.4298, 18.3946)">
<path transform="scale(0.0040, -0.0040)" d="M-7 375c8 4 17 7 25 7s16 -3 24 -7l-2 -183l106 20h3c10 0 18 -7 18 -17l7 -570c-8 -4 -17 -7 -25 -7s-16 3 -24 7l2 183l-106 -20h-3c-10 0 -18 7 -18 17zM131 112l-92 -17l-3 -207l92 17z" fill="currentColor"/>
</g>
</g>
<g transform="translate(63.0290, 30.7593)">
<path transform="scale(0.0022, -0.0022)" d="M153 150c35 -1 74 -13 111 -41c17 -13 37 -20 54 -20c18 0 33 7 37 24c3 11 11 17 20 17c11 0 23 -8 23 -21c0 -2 0 -5 -1 -7c-17 -65 -82 -102 -144 -102c-39 0 -77 15 -103 47c-10 13 -25 19 -39 19c-24 0 -48 -17 -51 -46c-1 -13 -11 -20 -21 -20c-11 0 -22 7 -22 21
c0 172 232 159 232 334c0 50 -17 102 -61 102c-33 0 -65 -15 -65 -44c0 -24 31 -37 31 -61c0 -34 -27 -61 -61 -61s-61 27 -61 61c0 83 71 148 156 148c98 0 190 -55 190 -145c0 -140 -131 -154 -225 -205z" fill="currentColor"/>
</g>
<g color="rgb(50.1961%, 50.1961%, 50.1961%)">
<g transform="translate(63.0290, 29.2593)">
<text font-family="serif" font-size="1.7461" text-anchor="start" fill="currentColor">
<tspan>5</tspan>
</text>
</g>
</g>
<g transform="translate(59.7490, 26.4593)">
<text font-family="serif" font-size="1.7461" text-anchor="start" fill="currentColor">
<tspan>(</tspan>
</text>
</g>
<g color="rgb(100.0000%, 0.0000%, 0.0000%)">
<g transform="translate(60.9295, 25.6656)">
<path transform="scale(0.0022, -0.0022)" d="M52 37c-5 -2 -10 -4 -16 -4c-19 0 -36 16 -36 36v41c0 14 9 28 22 33l30 13v144c0 14 11 26 25 26s26 -12 26 -26v-124l69 29v145c0 14 12 25 26 25s25 -11 25 -25v-124c5 2 10 4 16 4c19 0 36 -16 36 -36v-42c0 -14 -9 -28 -22 -33l-30 -12v-144c5 2 10 4 16 4
c19 0 36 -16 36 -36v-41c0 -14 -9 -28 -22 -33l-30 -13v-144c0 -14 -11 -26 -25 -26s-26 12 -26 26v124l-69 -29v-145c0 -14 -12 -25 -26 -25s-25 11 -25 25v124c-5 -2 -10 -4 -16 -4c-19 0 -36 16 -36 36v42c0 14 9 28 22 33l30 12v144zM172 86l-69 -28v-144l69 28v144z
" fill="currentColor"/>
</g>
</g>
<g color="rgb(100.0000%, 0.0000%, 0.0000%)">
</g>
<g color="rgb(100.0000%, 0.0000%, 0.0000%)">
<g transform="translate(61.6968, 26.4593)">
<text font-family="serif" font-size="1.7461" text-anchor="start" fill="currentColor">
<tspan>vii°</tspan>
</text>
</g>
</g>
<g color="rgb(50.1961%, 50.1961%, 50.1961%)">
<g transform="translate(64.3734, 25.6656)">
<text font-family="serif" font-size="1.2348" text-anchor="start" fill="currentColor">
<tspan>sus</tspan>
</text>
</g>
</g>
<g transform="translate(66.5440, 26.4593)">
<text font-family="serif" font-size="1.7461" text-anchor="start" fill="currentColor">
<tspan>)</tspan>
</text>
</g>
<g transform="translate(63.0290, 17.8946)">
<path transform="scale(0.0025, -0.0025)" d="M204 141c63 0 120 -35 120 -103c0 -70 -50 -119 -97 -147c-33 -20 -70 -32 -108 -32c-63 0 -119 35 -119 103c0 70 49 119 96 147c33 20 70 32 108 32z" fill="currentColor"/>
</g>
<g transform="translate(63.0290, 9.8261)">
<path transform="scale(0.0025, -0.0025)" d="M204 141c63 0 120 -35 120 -103c0 -70 -50 -119 -97 -147c-33 -20 -70 -32 -108 -32c-63 0 -119 35 -119 103c0 70 49 119 96 147c33 20 70 32 108 32z" fill="currentColor"/>
</g>
<g transform="translate(57.9107, 19.3946)">
<rect x="-0.0650" y="-4.6667" width="0.1300" height="2.4806" ry="0.0400" fill="currentColor"/>
</g>
<g transform="translate(63.7795, 10.3261)">
<rect x="-0.0650" y="-2.4950" width="0.1300" height="1.9002" ry="0.0400" fill="currentColor"/>
</g>
<g transform="translate(56.7365, 10.3261)">
<rect x="-0.0650" y="2.7590" width="0.1300" height="2.2410" ry="0.0400" fill="currentColor"/>
</g>
<g color="rgb(100.0000%, 0.0000%, 0.0000%)">
<g transform="translate(57.9107, 10.3261)">
<rect x="-0.0650" y="-3.3333" width="0.1300" height="3.1472" ry="0.0400" fill="currentColor"/>
</g>
</g>
<g transform="translate(40.0638, 28.6868)">
<line stroke-linejoin="round" stroke-linecap="round" stroke-width="0.1000" stroke="currentColor" x1="1.1219" y1="-0.0000" x2="5.7227" y2="-0.0000"/>
</g>
<g transform="translate(40.0638, 10.3261)">
<path stroke-width="0.0800" stroke-linejoin="round" stroke-linecap="round" stroke="currentColor" fill="currentColor" d="M0.8887 2.7500C2.0823 3.6792 8.8717 3.6792 10.0653 2.7500L10.0653 2.7500C8.8717 3.5592 2.0823 3.5592 0.8887 2.7500z"/>
</g>
<g transform="translate(34.3585, 32.0073)">
<line stroke-linejoin="round" stroke-linecap="round" stroke-width="0.1000" stroke="currentColor" x1="1.1219" y1="-0.0000" x2="11.4280" y2="-0.0000"/>
</g>
<g transform="translate(34.3585, 30.3937)">
<line stroke-linejoin="round" stroke-linecap="round" stroke-width="0.1000" stroke="currentColor" x1="1.1219" y1="-0.0000" x2="6.5979" y2="-0.0000"/>
</g>
<g transform="translate(24.4764, 10.3261)">
<path stroke-width="0.0800" stroke-linejoin="round" stroke-linecap="round" stroke="currentColor" fill="currentColor" d="M1.1810 2.7500C2.3297 3.6670 8.3984 3.6670 9.5471 2.7500L9.5471 2.7500C8.3984 3.5470 2.3297 3.5470 1.1810 2.7500z"/>
</g>
<g transform="translate(24.4764, 10.3261)">
<path stroke-width="0.0800" stroke-linejoin="round" stroke-linecap="round" stroke="currentColor" fill="currentColor" d="M1.1810 -0.7500C2.3753 -1.6794 9.1765 -1.6794 10.3707 -0.7500L10.3707 -0.7500C9.1765 -1.5594 2.3753 -1.5594 1.1810 -0.7500z"/>
</g>
<g transform="translate(50.4641, 19.3946)">
<path stroke-width="0.0800" stroke-linejoin="round" stroke-linecap="round" stroke="currentColor" fill="currentColor" d="M1.7123 -2.7500C2.6000 -3.5752 5.7719 -3.5752 6.6595 -2.7500L6.6595 -2.7500C5.7719 -3.4552 2.6000 -3.4552 1.7123 -2.7500z"/>
</g>
<g transform="translate(50.4641, 10.3261)">
<path stroke-width="0.0800" stroke-linejoin="round" stroke-linecap="round" stroke="currentColor" fill="currentColor" d="M1.7123 -0.2049C2.5308 -0.9983 5.1889 -0.9983 6.0074 -0.2049L6.0074 -0.2049C5.1889 -0.8783 2.5308 -0.8783 1.7123 -0.2049z"/>
</g>
<g transform="translate(67.5310, 17.8946)">
<path transform="scale(0.0040, -0.0040)" d="M0 119c0 8 5 15 13 18l46 17v158c0 10 8 19 18 19s19 -9 19 -19v-145l83 31v158c0 10 9 19 19 19s18 -9 18 -19v-145l32 12c2 1 5 1 7 1c11 0 20 -9 20 -20v-60c0 -8 -5 -16 -13 -19l-46 -16v-160l32 11c2 1 5 1 7 1c11 0 20 -9 20 -20v-60c0 -8 -5 -15 -13 -18l-46 -17
v-158c0 -10 -8 -19 -18 -19s-19 9 -19 19v145l-83 -31v-158c0 -10 -9 -19 -19 -19s-18 9 -18 19v145l-32 -12c-2 -1 -5 -1 -7 -1c-11 0 -20 9 -20 20v60c0 8 5 16 13 19l46 16v160l-32 -11c-2 -1 -5 -1 -7 -1c-11 0 -20 9 -20 20v60zM179 95l-83 -30v-160l83 30v160z" fill="currentColor"/>
</g>
<g transform="translate(45.9172, 5.1698)">
<text font-family="serif" font-style="italic" font-size="1.9600" text-anchor="start" fill="currentColor">
<tspan>1 - 4</tspan>
</text>
</g>
<g transform="translate(24.4764, 5.7428)">
<line stroke-linejoin="round" stroke-linecap="round" stroke-width="0.1000" stroke="currentColor" x1="45.9666" y1="-0.0000" x2="46.4666" y2="1.0000"/>
</g>
<g transform="translate(24.4764, 5.7428)">
<line stroke-linejoin="round" stroke-linecap="round" stroke-width="0.1000" stroke="currentColor" x1="0.5000" y1="-0.0000" x2="0.0000" y2="1.0000"/>
</g>
<g transform="translate(24.4764, 5.7428)">
<line stroke-linejoin="round" stroke-linecap="round" stroke-width="0.1000" stroke="currentColor" x1="0.5000" y1="-0.0000" x2="45.9666" y2="-0.0000"/>
</g>
<g color="rgb(12.9400%, 51.3700%, 19.2200%)">
<g transform="translate(34.3585, 18.3946)">
<path transform="scale(0.0040, -0.0040)" d="M213 112c-50 0 -69 -43 -69 -88c0 -77 57 -136 134 -136c50 0 69 43 69 88c0 77 -57 136 -134 136zM491 0c0 -43 -34 -75 -72 -96c-53 -29 -114 -40 -174 -40s-120 11 -173 40c-38 21 -72 53 -72 96s34 75 72 96c53 29 113 40 173 40s121 -11 174 -40
c38 -21 72 -53 72 -96z" fill="currentColor"/>
</g>
</g>
<g transform="translate(34.3585, 17.3946)">
<path transform="scale(0.0040, -0.0040)" d="M213 112c-50 0 -69 -43 -69 -88c0 -77 57 -136 134 -136c50 0 69 43 69 88c0 77 -57 136 -134 136zM491 0c0 -43 -34 -75 -72 -96c-53 -29 -114 -40 -174 -40s-120 11 -173 40c-38 21 -72 53 -72 96s34 75 72 96c53 29 113 40 173 40s121 -11 174 -40
c38 -21 72 -53 72 -96z" fill="currentColor"/>
</g>
<g transform="translate(34.3585, 12.3261)">
<path transform="scale(0.0025, -0.0025)" d="M305 61c0 22 -18 38 -38 38c-4 0 -8 -1 -12 -2c-29 -8 -72 -36 -106 -58s-78 -51 -97 -74c-6 -8 -10 -17 -10 -26c0 -22 19 -38 39 -38c4 0 7 1 11 2c29 8 73 36 107 58s78 51 97 74c6 8 9 17 9 26zM246 141c56 0 101 -23 101 -85c0 -64 -27 -123 -69 -151
c-51 -34 -108 -46 -176 -46c-56 0 -102 23 -102 85c0 64 28 123 70 151c51 34 108 46 176 46z" fill="currentColor"/>
</g>
<g color="rgb(100.0000%, 0.0000%, 0.0000%)">
<g transform="translate(34.3585, 10.3261)">
<path transform="scale(0.0040, -0.0040)" d="M314 65c0 24 -21 41 -42 41c-4 0 -8 0 -12 -1c-31 -9 -78 -40 -115 -64s-84 -53 -104 -78c-7 -8 -10 -18 -10 -28c0 -24 21 -41 42 -41c4 0 8 0 12 1c31 9 77 40 114 64s84 53 104 78c7 8 11 18 11 28zM262 136c46 0 82 -21 82 -71c0 -19 -4 -39 -10 -57
c-12 -37 -32 -72 -64 -94c-53 -36 -113 -50 -187 -50c-46 0 -83 21 -83 71c0 19 5 39 11 57c12 37 31 72 63 94c53 36 114 50 188 50z" fill="currentColor"/>
</g>
</g>
<g transform="translate(34.4235, 10.3261)">
<rect x="-0.0650" y="2.1420" width="0.1300" height="1.5380" ry="0.0400" fill="currentColor"/>
</g>
<g color="rgb(100.0000%, 0.0000%, 0.0000%)">
<g transform="translate(35.6708, 10.3261)">
<rect x="-0.0650" y="-3.3333" width="0.1300" height="3.0743" ry="0.0400" fill="currentColor"/>
</g>
</g>
<g color="rgb(100.0000%, 0.0000%, 0.0000%)">
<g transform="translate(36.1858, 9.8261)">
<path transform="scale(0.0040, -0.0040)" d="M0 0c0 31 25 56 56 56s56 -25 56 -56s-25 -56 -56 -56s-56 25 -56 56z" fill="currentColor"/>
</g>
</g>
<g transform="translate(34.3585, 32.5686)">
<path transform="scale(0.0022, -0.0022)" d="M190 457c-33 0 -68 -9 -68 -38c0 -19 31 -23 31 -42c0 -28 -22 -51 -50 -51s-51 23 -51 51c0 71 64 123 138 123c93 0 174 -31 174 -113c0 -36 -11 -65 -43 -80c-17 -8 -25 -25 -25 -41s8 -32 25 -40c37 -17 59 -45 59 -85c0 -94 -83 -141 -186 -141
c-84 0 -159 54 -159 133c0 32 26 58 58 58s58 -26 58 -58c0 -22 -36 -26 -36 -48c0 -33 41 -42 79 -42c41 0 57 50 57 98v21c0 44 -3 77 -44 77h-65c-18 0 -27 14 -27 27s9 27 27 27h65c42 0 44 36 44 83v11c0 43 -20 70 -61 70z" fill="currentColor"/>
</g>
<g transform="translate(34.3585, 30.9561)">
<path transform="scale(0.0022, -0.0022)" d="M204 223c21 13 46 23 59 45c8 14 10 46 31 46c11 0 24 -8 24 -25v-110h70c18 0 27 -14 27 -27s-9 -27 -27 -27h-70c2 -45 36 -82 80 -82c14 0 22 -10 22 -21s-8 -22 -22 -22c-49 0 -96 14 -145 14s-97 -14 -146 -14c-14 0 -21 11 -21 22s7 21 21 21c44 0 79 37 81 82
h-134c-43 0 -57 25 -57 42c0 5 1 10 3 12c73 81 123 182 123 291c0 17 11 31 25 31c2 0 4 0 6 -1c22 -6 43 -14 66 -14s45 8 67 14c3 1 6 1 9 1c15 0 26 -11 26 -21c0 -4 -1 -7 -4 -10l-264 -291h134v4c0 16 3 32 16 40z" fill="currentColor"/>
</g>
<g color="rgb(50.1961%, 50.1961%, 50.1961%)">
<g transform="translate(34.3585, 29.2593)">
<text font-family="serif" font-size="1.7461" text-anchor="start" fill="currentColor">
<tspan>7</tspan>
</text>
</g>
</g>
<g transform="translate(32.8549, 26.4593)">
<text font-family="serif" font-size="1.7461" text-anchor="start" fill="currentColor">
<tspan>(</tspan>
</text>
</g>
<g transform="translate(34.0353, 26.4593)">
<text font-family="serif" font-size="1.7461" text-anchor="start" fill="currentColor">
<tspan>v</tspan>
</text>
</g>
<g color="rgb(50.1961%, 50.1961%, 50.1961%)">
<g transform="translate(35.0730, 25.6656)">
<text font-family="serif" font-size="1.2348" text-anchor="start" fill="currentColor">
<tspan>sus</tspan>
</text>
</g>
</g>
<g transform="translate(37.2436, 26.4593)">
<text font-family="serif" font-size="1.7461" text-anchor="start" fill="currentColor">
<tspan>)</tspan>
</text>
</g>
<g transform="translate(15.0264, 18.3946)">
<path transform="scale(0.0040, -0.0040)" d="M557 -125c0 28 23 51 51 51s51 -23 51 -51s-23 -51 -51 -51s-51 23 -51 51zM557 125c0 28 23 51 51 51s51 -23 51 -51s-23 -51 -51 -51s-51 23 -51 51zM232 263c172 0 293 -88 293 -251c0 -263 -263 -414 -516 -521c-3 -3 -6 -4 -9 -4c-7 0 -13 6 -13 13c0 3 1 6 4 9
c202 118 412 265 412 493c0 120 -63 235 -171 235c-74 0 -129 -54 -154 -126c11 5 22 8 34 8c55 0 100 -45 100 -100c0 -58 -44 -106 -100 -106c-60 0 -112 47 -112 106c0 133 102 244 232 244z" fill="currentColor"/>
</g>
<g color="rgb(12.9400%, 51.3700%, 19.2200%)">
<g transform="translate(24.4764, 17.8946)">
<path transform="scale(0.0040, -0.0040)" d="M213 112c-50 0 -69 -43 -69 -88c0 -77 57 -136 134 -136c50 0 69 43 69 88c0 77 -57 136 -134 136zM491 0c0 -43 -34 -75 -72 -96c-53 -29 -114 -40 -174 -40s-120 11 -173 40c-38 21 -72 53 -72 96s34 75 72 96c53 29 113 40 173 40s121 -11 174 -40
c38 -21 72 -53 72 -96z" fill="currentColor"/>
</g>
</g>
<g transform="translate(24.4764, 16.8946)">
<path transform="scale(0.0040, -0.0040)" d="M213 112c-50 0 -69 -43 -69 -88c0 -77 57 -136 134 -136c50 0 69 43 69 88c0 77 -57 136 -134 136zM491 0c0 -43 -34 -75 -72 -96c-53 -29 -114 -40 -174 -40s-120 11 -173 40c-38 21 -72 53 -72 96s34 75 72 96c53 29 113 40 173 40s121 -11 174 -40
c38 -21 72 -53 72 -96z" fill="currentColor"/>
</g>
<g transform="translate(20.7764, 10.3261)">
<path transform="scale(0.0040, -0.0040)" d="M359 27c-49 0 -75 42 -75 75c0 38 27 77 72 77c4 0 9 0 14 -1c-28 37 -72 59 -120 59h-13v-474c4 0 9 -1 13 -1c80 0 139 70 158 151c2 7 7 10 12 10c6 0 13 -4 13 -12c0 -94 -105 -174 -183 -174c-4 0 -9 1 -13 1v-78c0 -6 -4 -10 -10 -10h-17c-6 0 -10 4 -10 10v81
c-51 8 -99 29 -134 66c-49 51 -66 122 -66 193s17 142 66 193c35 37 83 58 134 66v81c0 6 4 10 10 10h17c6 0 10 -4 10 -10v-78h13c87 0 160 -64 175 -150c1 -5 1 -9 1 -13c0 -40 -30 -72 -67 -72zM200 -230v460c-58 -22 -63 -87 -63 -179v-51v-51c0 -92 5 -157 63 -179z
" fill="currentColor"/>
</g>
<g transform="translate(18.5264, 8.3261)">
<path transform="scale(0.0040, -0.0040)" d="M0 119c0 8 5 15 13 18l46 17v158c0 10 8 19 18 19s19 -9 19 -19v-145l83 31v158c0 10 9 19 19 19s18 -9 18 -19v-145l32 12c2 1 5 1 7 1c11 0 20 -9 20 -20v-60c0 -8 -5 -16 -13 -19l-46 -16v-160l32 11c2 1 5 1 7 1c11 0 20 -9 20 -20v-60c0 -8 -5 -15 -13 -18l-46 -17
v-158c0 -10 -8 -19 -18 -19s-19 9 -19 19v145l-83 -31v-158c0 -10 -9 -19 -19 -19s-18 9 -18 19v145l-32 -12c-2 -1 -5 -1 -7 -1c-11 0 -20 9 -20 20v60c0 8 5 16 13 19l46 16v160l-32 -11c-2 -1 -5 -1 -7 -1c-11 0 -20 9 -20 20v60zM179 95l-83 -30v-160l83 30v160z" fill="currentColor"/>
</g>
<g transform="translate(15.0264, 11.3261)">
<path transform="scale(0.0040, -0.0040)" d="M266 -635h-6c-108 0 -195 88 -195 197c0 58 53 103 112 103c54 0 95 -47 95 -103c0 -52 -43 -95 -95 -95c-11 0 -21 2 -31 6c26 -39 68 -65 117 -65h4zM461 -203c68 24 113 95 113 164c0 90 -66 179 -173 190c24 -116 46 -231 60 -354zM74 28c0 -135 129 -247 264 -247
c28 0 55 2 82 6c-14 127 -37 245 -63 364c-79 -8 -124 -61 -124 -119c0 -44 25 -91 81 -123c5 -5 7 -10 7 -15c0 -11 -10 -22 -22 -22c-3 0 -6 1 -9 2c-80 43 -117 115 -117 185c0 88 58 174 160 197c-14 58 -29 117 -46 175c-107 -121 -213 -243 -213 -403zM335 -262
c-188 0 -333 172 -333 374c0 177 131 306 248 441c-19 62 -37 125 -45 190c-6 52 -7 104 -7 156c0 115 55 224 149 292c6 5 14 5 20 0c71 -84 133 -245 133 -358c0 -143 -86 -255 -180 -364c21 -68 39 -138 56 -207c4 0 9 1 13 1c155 0 256 -128 256 -261
c0 -76 -33 -154 -107 -210c-22 -17 -47 -28 -73 -36c3 -35 5 -70 5 -105c0 -19 -1 -39 -2 -58c-7 -119 -88 -225 -202 -228l1 43c93 2 153 92 159 191c1 18 2 37 2 55c0 31 -1 61 -4 92c-29 -5 -58 -8 -89 -8zM428 916c0 55 -4 79 -20 129c-99 -48 -162 -149 -162 -259
c0 -74 18 -133 36 -194c80 97 146 198 146 324z" fill="currentColor"/>
</g>
<g transform="translate(24.4764, 12.3261)">
<path transform="scale(0.0040, -0.0040)" d="M213 112c-50 0 -69 -43 -69 -88c0 -77 57 -136 134 -136c50 0 69 43 69 88c0 77 -57 136 -134 136zM491 0c0 -43 -34 -75 -72 -96c-53 -29 -114 -40 -174 -40s-120 11 -173 40c-38 21 -72 53 -72 96s34 75 72 96c53 29 113 40 173 40s121 -11 174 -40
c38 -21 72 -53 72 -96z" fill="currentColor"/>
</g>
<g color="rgb(100.0000%, 0.0000%, 0.0000%)">
<g transform="translate(24.4764, 10.3261)">
<path transform="scale(0.0040, -0.0040)" d="M213 112c-50 0 -69 -43 -69 -88c0 -77 57 -136 134 -136c50 0 69 43 69 88c0 77 -57 136 -134 136zM491 0c0 -43 -34 -75 -72 -96c-53 -29 -114 -40 -174 -40s-120 11 -173 40c-38 21 -72 53 -72 96s34 75 72 96c53 29 113 40 173 40s121 -11 174 -40
c38 -21 72 -53 72 -96z" fill="currentColor"/>
</g>
</g>
<g transform="translate(18.5264, 18.3946)">
<path transform="scale(0.0040, -0.0040)" d="M0 119c0 8 5 15 13 18l46 17v158c0 10 8 19 18 19s19 -9 19 -19v-145l83 31v158c0 10 9 19 19 19s18 -9 18 -19v-145l32 12c2 1 5 1 7 1c11 0 20 -9 20 -20v-60c0 -8 -5 -16 -13 -19l-46 -16v-160l32 11c2 1 5 1 7 1c11 0 20 -9 20 -20v-60c0 -8 -5 -15 -13 -18l-46 -17
v-158c0 -10 -8 -19 -18 -19s-19 9 -19 19v145l-83 -31v-158c0 -10 -9 -19 -19 -19s-18 9 -18 19v145l-32 -12c-2 -1 -5 -1 -7 -1c-11 0 -20 9 -20 20v60c0 8 5 16 13 19l46 16v160l-32 -11c-2 -1 -5 -1 -7 -1c-11 0 -20 9 -20 20v60zM179 95l-83 -30v-160l83 30v160z" fill="currentColor"/>
</g>
<g transform="translate(14.1664, 14.8603)">
<rect x="0.0000" y="-6.5842" width="0.1600" height="13.1685" ry="0.0500" fill="currentColor"/>
</g>
<g transform="translate(13.8664, 14.8603)">
<path transform="scale(0.0040, -0.0040)" d="M-189 -1146c0 267 108 528 108 780c0 135 -33 261 -129 360c-3 3 -3 3 -3 6s0 3 3 6c96 99 129 225 129 360c0 252 -108 513 -108 780c0 189 45 366 177 501c15 15 39 -9 24 -24c-99 -99 -129 -225 -129 -360c0 -249 102 -504 102 -765c0 -186 -45 -363 -174 -498
c129 -135 174 -312 174 -498c0 -261 -102 -516 -102 -765c0 -135 30 -261 129 -360c15 -15 -9 -39 -24 -24c-132 135 -177 312 -177 501z" fill="currentColor"/>
</g>
<g transform="translate(24.4764, 29.2593)">
<path transform="scale(0.0022, -0.0022)" d="M207 226c-44 0 -46 -40 -46 -92s2 -91 46 -91c46 0 55 38 55 91s-9 92 -55 92zM161 257c14 8 29 12 46 12c103 0 177 -41 177 -135s-74 -134 -177 -134c-114 0 -176 124 -176 250c0 129 77 250 197 250c75 0 141 -52 141 -123c0 -32 -26 -58 -58 -58s-58 26 -58 58
c0 21 35 23 35 44c0 26 -31 36 -60 36c-61 0 -69 -60 -69 -129c0 -23 2 -48 2 -71z" fill="currentColor"/>
</g>
<g transform="translate(25.1159, 26.4593)">
<text font-family="serif" font-size="2.4696" text-anchor="start" fill="currentColor">
<tspan>i</tspan>
</text>
</g>
<g transform="translate(23.1015, 23.6593)">
<text font-family="serif" font-size="2.4696" text-anchor="start" fill="currentColor">
<tspan>Em :</tspan>
</text>
</g>
<g transform="translate(20.7764, 19.3946)">
<path transform="scale(0.0040, -0.0040)" d="M359 27c-49 0 -75 42 -75 75c0 38 27 77 72 77c4 0 9 0 14 -1c-28 37 -72 59 -120 59h-13v-474c4 0 9 -1 13 -1c80 0 139 70 158 151c2 7 7 10 12 10c6 0 13 -4 13 -12c0 -94 -105 -174 -183 -174c-4 0 -9 1 -13 1v-78c0 -6 -4 -10 -10 -10h-17c-6 0 -10 4 -10 10v81
c-51 8 -99 29 -134 66c-49 51 -66 122 -66 193s17 142 66 193c35 37 83 58 134 66v81c0 6 4 10 10 10h17c6 0 10 -4 10 -10v-78h13c87 0 160 -64 175 -150c1 -5 1 -9 1 -13c0 -40 -30 -72 -67 -72zM200 -230v460c-58 -22 -63 -87 -63 -179v-51v-51c0 -92 5 -157 63 -179z
" fill="currentColor"/>
</g>
<g transform="translate(50.4641, 12.3261)">
<path transform="scale(0.0040, -0.0040)" d="M314 65c0 24 -21 41 -42 41c-4 0 -8 0 -12 -1c-31 -9 -78 -40 -115 -64s-84 -53 -104 -78c-7 -8 -10 -18 -10 -28c0 -24 21 -41 42 -41c4 0 8 0 12 1c31 9 77 40 114 64s84 53 104 78c7 8 11 18 11 28zM262 136c46 0 82 -21 82 -71c0 -19 -4 -39 -10 -57
c-12 -37 -32 -72 -64 -94c-53 -36 -113 -50 -187 -50c-46 0 -83 21 -83 71c0 19 5 39 11 57c12 37 31 72 63 94c53 36 114 50 188 50z" fill="currentColor"/>
</g>
<g transform="translate(50.3525, 26.4593)">
<text font-family="serif" font-size="2.4696" text-anchor="start" fill="currentColor">
<tspan>Fr</tspan>
</text>
</g>
<g transform="translate(49.3623, 23.6593)">
<text font-family="serif" font-size="2.4696" text-anchor="start" fill="currentColor">
<tspan>|Am</tspan>
</text>
</g>
<g color="rgb(12.9400%, 51.3700%, 19.2200%)">
<g transform="translate(50.4641, 18.3946)">
<path transform="scale(0.0040, -0.0040)" d="M213 112c-50 0 -69 -43 -69 -88c0 -77 57 -136 134 -136c50 0 69 43 69 88c0 77 -57 136 -134 136zM491 0c0 -43 -34 -75 -72 -96c-53 -29 -114 -40 -174 -40s-120 11 -173 40c-38 21 -72 53 -72 96s34 75 72 96c53 29 113 40 173 40s121 -11 174 -40
c38 -21 72 -53 72 -96z" fill="currentColor"/>
</g>
</g>
<g transform="translate(50.4641, 17.3946)">
<path transform="scale(0.0040, -0.0040)" d="M314 65c0 24 -21 41 -42 41c-4 0 -8 0 -12 -1c-31 -9 -78 -40 -115 -64s-84 -53 -104 -78c-7 -8 -10 -18 -10 -28c0 -24 21 -41 42 -41c4 0 8 0 12 1c31 9 77 40 114 64s84 53 104 78c7 8 11 18 11 28zM262 136c46 0 82 -21 82 -71c0 -19 -4 -39 -10 -57
c-12 -37 -32 -72 -64 -94c-53 -36 -113 -50 -187 -50c-46 0 -83 21 -83 71c0 19 5 39 11 57c12 37 31 72 63 94c53 36 114 50 188 50z" fill="currentColor"/>
</g>
<g transform="translate(49.9178, 29.2593)">
<path transform="scale(0.0022, -0.0022)" d="M125 125c-21 0 -38 17 -38 38v49h-49c-21 0 -38 17 -38 38s17 38 38 38h49v49c0 21 17 38 38 38s38 -17 38 -38v-49h49c21 0 38 -17 38 -38s-17 -38 -38 -38h-49v-49c0 -21 -17 -38 -38 -38z" fill="currentColor"/>
</g>
<g transform="translate(50.4641, 29.2593)">
<path transform="scale(0.0022, -0.0022)" d="M207 226c-44 0 -46 -40 -46 -92s2 -91 46 -91c46 0 55 38 55 91s-9 92 -55 92zM161 257c14 8 29 12 46 12c103 0 177 -41 177 -135s-74 -134 -177 -134c-114 0 -176 124 -176 250c0 129 77 250 197 250c75 0 141 -52 141 -123c0 -32 -26 -58 -58 -58s-58 26 -58 58
c0 21 35 23 35 44c0 26 -31 36 -60 36c-61 0 -69 -60 -69 -129c0 -23 2 -48 2 -71z" fill="currentColor"/>
</g>
<g color="rgb(100.0000%, 0.0000%, 0.0000%)">
<g transform="translate(50.4641, 10.3261)">
<path transform="scale(0.0040, -0.0040)" d="M314 65c0 24 -21 41 -42 41c-4 0 -8 0 -12 -1c-31 -9 -78 -40 -115 -64s-84 -53 -104 -78c-7 -8 -10 -18 -10 -28c0 -24 21 -41 42 -41c4 0 8 0 12 1c31 9 77 40 114 64s84 53 104 78c7 8 11 18 11 28zM262 136c46 0 82 -21 82 -71c0 -19 -4 -39 -10 -57
c-12 -37 -32 -72 -64 -94c-53 -36 -113 -50 -187 -50c-46 0 -83 21 -83 71c0 19 5 39 11 57c12 37 31 72 63 94c53 36 114 50 188 50z" fill="currentColor"/>
</g>
</g>
<g transform="translate(45.6443, 10.3261)">
<rect x="-0.0650" y="-2.4950" width="0.1300" height="1.9002" ry="0.0400" fill="currentColor"/>
</g>
<g transform="translate(44.8939, 30.9561)">
<path transform="scale(0.0022, -0.0022)" d="M87 500c42 -7 84 -14 127 -14s85 7 127 14c2 0 5 1 7 1c17 0 27 -12 27 -22c0 -4 -1 -6 -4 -9c-61 -61 -144 -91 -230 -91c-17 0 -31 -14 -31 -31v-41c25 25 63 25 98 25h4c115 0 182 -55 182 -166c0 -99 -96 -166 -202 -166c-88 0 -169 52 -169 133c0 32 26 58 58 58
s58 -26 58 -58c0 -22 -36 -26 -36 -48c0 -36 47 -42 89 -42c52 0 73 63 73 123c0 53 -7 112 -53 112c-41 0 -83 -1 -106 -33c-6 -8 -14 -11 -22 -11c-14 0 -28 10 -28 27v209c0 17 12 30 27 30h4z" fill="currentColor"/>
</g>
<g transform="translate(51.7764, 19.3946)">
<rect x="-0.0650" y="-4.6667" width="0.1300" height="2.4077" ry="0.0400" fill="currentColor"/>
</g>
<g transform="translate(50.5291, 10.3261)">
<rect x="-0.0650" y="2.2590" width="0.1300" height="2.4077" ry="0.0400" fill="currentColor"/>
</g>
<g color="rgb(100.0000%, 0.0000%, 0.0000%)">
<g transform="translate(51.7764, 10.3261)">
<rect x="-0.0650" y="-3.3333" width="0.1300" height="3.0743" ry="0.0400" fill="currentColor"/>
</g>
</g>
<g transform="translate(39.5745, 26.4593)">
<text font-family="serif" font-size="2.4696" text-anchor="start" fill="currentColor">
<tspan>V </tspan>
</text>
</g>
<g transform="translate(42.4742, 26.4593)">
<text font-family="serif" font-size="1.7461" text-anchor="start" fill="currentColor">
<tspan>(</tspan>
</text>
</g>
<g color="rgb(11.7647%, 56.4706%, 100.0000%)">
<g transform="translate(43.6546, 25.6656)">
<path transform="scale(0.0022, -0.0022)" d="M52 37c-5 -2 -10 -4 -16 -4c-19 0 -36 16 -36 36v41c0 14 9 28 22 33l30 13v144c0 14 11 26 25 26s26 -12 26 -26v-124l69 29v145c0 14 12 25 26 25s25 -11 25 -25v-124c5 2 10 4 16 4c19 0 36 -16 36 -36v-42c0 -14 -9 -28 -22 -33l-30 -12v-144c5 2 10 4 16 4
c19 0 36 -16 36 -36v-41c0 -14 -9 -28 -22 -33l-30 -13v-144c0 -14 -11 -26 -25 -26s-26 12 -26 26v124l-69 -29v-145c0 -14 -12 -25 -26 -25s-25 11 -25 25v124c-5 -2 -10 -4 -16 -4c-19 0 -36 16 -36 36v42c0 14 9 28 22 33l30 12v144zM172 86l-69 -28v-144l69 28v144z
" fill="currentColor"/>
</g>
</g>
<g color="rgb(11.7647%, 56.4706%, 100.0000%)">
</g>
<g color="rgb(11.7647%, 56.4706%, 100.0000%)">
<g transform="translate(44.4220, 26.4593)">
<text font-family="serif" font-size="1.7461" text-anchor="start" fill="currentColor">
<tspan>vii°</tspan>
</text>
</g>
</g>
<g transform="translate(47.5486, 26.4593)">
<text font-family="serif" font-size="1.7461" text-anchor="start" fill="currentColor">
<tspan>)</tspan>
</text>
</g>
<g transform="translate(40.0638, 12.3261)">
<path transform="scale(0.0040, -0.0040)" d="M314 65c0 24 -21 41 -42 41c-4 0 -8 0 -12 -1c-31 -9 -78 -40 -115 -64s-84 -53 -104 -78c-7 -8 -10 -18 -10 -28c0 -24 21 -41 42 -41c4 0 8 0 12 1c31 9 77 40 114 64s84 53 104 78c7 8 11 18 11 28zM262 136c46 0 82 -21 82 -71c0 -19 -4 -39 -10 -57
c-12 -37 -32 -72 -64 -94c-53 -36 -113 -50 -187 -50c-46 0 -83 21 -83 71c0 19 5 39 11 57c12 37 31 72 63 94c53 36 114 50 188 50z" fill="currentColor"/>
</g>
<g transform="translate(44.8939, 9.8261)">
<path transform="scale(0.0025, -0.0025)" d="M204 141c63 0 120 -35 120 -103c0 -70 -50 -119 -97 -147c-33 -20 -70 -32 -108 -32c-63 0 -119 35 -119 103c0 70 49 119 96 147c33 20 70 32 108 32z" fill="currentColor"/>
</g>
<g transform="translate(38.9138, 12.3261)">
<path transform="scale(0.0040, -0.0040)" d="M27 41l-1 -66v-11c0 -22 1 -44 4 -66c45 38 93 80 93 139c0 33 -14 67 -43 67c-31 0 -52 -30 -53 -63zM-15 -138l-12 595c8 5 18 8 27 8s19 -3 27 -8l-7 -345c25 21 58 34 91 34c52 0 89 -48 89 -102c0 -80 -86 -117 -147 -169c-15 -13 -24 -38 -45 -38
c-13 0 -23 11 -23 25z" fill="currentColor"/>
</g>
<g transform="translate(40.1288, 10.3261)">
<rect x="-0.0650" y="2.2590" width="0.1300" height="2.4077" ry="0.0400" fill="currentColor"/>
</g>
<g transform="translate(39.3492, 29.2593)">
<path transform="scale(0.0022, -0.0022)" d="M96 165l-2 -58v-10c0 -20 2 -40 5 -60c37 38 75 80 75 133c0 30 -9 60 -35 60c-29 0 -42 -32 -43 -65zM40 0l-16 549c11 6 23 10 35 10s24 -4 35 -10l-9 -311c23 29 58 46 95 46c48 0 71 -53 71 -107c0 -74 -71 -118 -123 -170c-20 -20 -27 -56 -57 -56
c-22 0 -31 24 -31 49z" fill="currentColor"/>
</g>
<g transform="translate(40.0638, 29.2593)">
<path transform="scale(0.0022, -0.0022)" d="M148 388c-31 0 -52 -52 -52 -77c0 -18 -14 -27 -27 -27s-27 9 -27 27v162c0 18 14 27 27 27s27 -9 27 -27v-16c0 -10 14 -19 22 -19c2 0 4 1 5 3c26 37 55 56 84 56c23 0 46 -12 69 -36c9 -10 22 -14 34 -14c24 0 50 17 68 42c6 8 13 11 21 11c14 0 28 -12 28 -27
c0 -5 -1 -10 -5 -15c-75 -107 -139 -228 -139 -354c0 -24 2 -49 7 -74c0 -2 1 -3 1 -5c0 -14 -12 -26 -25 -26c-2 0 -4 0 -6 1c-22 6 -44 14 -67 14s-44 -8 -66 -14c-3 -1 -6 -1 -8 -1c-14 0 -25 11 -25 23c0 3 1 5 2 8c48 112 113 216 182 316c-9 -2 -19 -3 -28 -3
c-25 0 -48 8 -68 29c-10 10 -22 16 -34 16z" fill="currentColor"/>
</g>
<g transform="translate(5.6906, 42.0944)">
<text font-family="serif" font-size="1.7461" text-anchor="start" fill="currentColor">
<tspan>While</tspan>
</text>
</g>
<g transform="translate(10.5585, 42.0944)">
<text font-family="serif" font-size="1.7461" text-anchor="start" fill="currentColor">
<tspan>it</tspan>
</text>
</g>
<g transform="translate(12.1145, 42.0944)">
<text font-family="serif" font-size="1.7461" text-anchor="start" fill="currentColor">
<tspan>may</tspan>
</text>
</g>
<g transform="translate(15.7532, 42.0944)">
<text font-family="serif" font-size="1.7461" text-anchor="start" fill="currentColor">
<tspan>be</tspan>
</text>
</g>
<g transform="translate(18.0263, 42.0944)">
<text font-family="serif" font-size="1.7461" text-anchor="start" fill="currentColor">
<tspan>considered</tspan>
</text>
</g>
<g transform="translate(26.2744, 42.0944)">
<text font-family="serif" font-size="1.7461" text-anchor="start" fill="currentColor">
<tspan>in</tspan>
</text>
</g>
<g transform="translate(28.2401, 42.0944)">
<text font-family="serif" font-size="1.7461" text-anchor="start" fill="currentColor">
<tspan>the</tspan>
</text>
</g>
<g transform="translate(30.9911, 42.0944)">
<text font-family="serif" font-size="1.7461" text-anchor="start" fill="currentColor">
<tspan>context</tspan>
</text>
</g>
<g transform="translate(36.7809, 42.0944)">
<text font-family="serif" font-size="1.7461" text-anchor="start" fill="currentColor">
<tspan>of</tspan>
</text>
</g>
<g transform="translate(38.8491, 42.0944)">
<text font-family="serif" font-size="1.7461" text-anchor="start" fill="currentColor">
<tspan>harmonic</tspan>
</text>
</g>
<g transform="translate(46.1070, 42.0944)">
<text font-family="serif" font-size="1.7461" text-anchor="start" fill="currentColor">
<tspan>analysis,</tspan>
</text>
</g>
<g transform="translate(52.8187, 42.0944)">
<text font-family="serif" font-size="1.7461" text-anchor="start" fill="currentColor">
<tspan>the</tspan>
</text>
</g>
<g transform="translate(55.5697, 42.0944)">
<text font-family="serif" font-size="1.7461" text-anchor="start" fill="currentColor">
<tspan>C</tspan>
</text>
</g>
<g transform="translate(57.3306, 42.0944)">
<text font-family="serif" font-size="1.7461" text-anchor="start" fill="currentColor">
<tspan>in</tspan>
</text>
</g>
<g transform="translate(59.2963, 42.0944)">
<text font-family="serif" font-size="1.7461" text-anchor="start" fill="currentColor">
<tspan>the</tspan>
</text>
</g>
<g transform="translate(62.0473, 42.0944)">
<text font-family="serif" font-size="1.7461" text-anchor="start" fill="currentColor">
<tspan>upper</tspan>
</text>
</g>
<g transform="translate(66.6762, 42.0944)">
<text font-family="serif" font-size="1.7461" text-anchor="start" fill="currentColor">
<tspan>voice</tspan>
</text>
</g>
<g transform="translate(71.1003, 42.0944)">
<text font-family="serif" font-size="1.7461" text-anchor="start" fill="currentColor">
<tspan>is</tspan>
</text>
</g>
<g transform="translate(72.8612, 42.0944)">
<text font-family="serif" font-size="1.7461" text-anchor="start" fill="currentColor">
<tspan>best</tspan>
</text>
</g>
<g transform="translate(76.2950, 42.0944)">
<text font-family="serif" font-size="1.7461" text-anchor="start" fill="currentColor">
<tspan>interpreted</tspan>
</text>
</g>
<g transform="translate(84.5090, 42.0944)">
<text font-family="serif" font-size="1.7461" text-anchor="start" fill="currentColor">
<tspan>as</tspan>
</text>
</g>
<g transform="translate(86.5772, 42.0944)">
<text font-family="serif" font-size="1.7461" text-anchor="start" fill="currentColor">
<tspan>an</tspan>
</text>
</g>
<g transform="translate(5.6906, 45.0944)">
<text font-family="serif" font-size="1.7461" text-anchor="start" fill="currentColor">
<tspan>appoggiatura,</tspan>
</text>
</g>
<g transform="translate(15.9531, 45.0944)">
<text font-family="serif" font-size="1.7461" text-anchor="start" fill="currentColor">
<tspan>a</tspan>
</text>
</g>
<g transform="translate(17.3384, 45.0944)">
<text font-family="serif" font-size="1.7461" text-anchor="start" fill="currentColor">
<tspan>reading</tspan>
</text>
</g>
<g transform="translate(23.2306, 45.0944)">
<text font-family="serif" font-size="1.7461" text-anchor="start" fill="currentColor">
<tspan>that</tspan>
</text>
</g>
<g transform="translate(26.4597, 45.0944)">
<text font-family="serif" font-size="1.7461" text-anchor="start" fill="currentColor">
<tspan>accounts</tspan>
</text>
</g>
<g transform="translate(33.2396, 45.0944)">
<text font-family="serif" font-size="1.7461" text-anchor="start" fill="currentColor">
<tspan>for</tspan>
</text>
</g>
<g transform="translate(35.8882, 45.0944)">
<text font-family="serif" font-size="1.7461" text-anchor="start" fill="currentColor">
<tspan>the</tspan>
</text>
</g>
<g transform="translate(38.6392, 45.0944)">
<text font-family="serif" font-size="1.7461" text-anchor="start" fill="currentColor">
<tspan>sustained</tspan>
</text>
</g>
<g transform="translate(45.7947, 45.0944)">
<text font-family="serif" font-size="1.7461" text-anchor="start" fill="currentColor">
<tspan>B</tspan>
</text>
</g>
<g transform="translate(47.5556, 45.0944)">
<text font-family="serif" font-size="1.7461" text-anchor="start" fill="currentColor">
<tspan>functioning</tspan>
</text>
</g>
<g transform="translate(56.2817, 45.0944)">
<text font-family="serif" font-size="1.7461" text-anchor="start" fill="currentColor">
<tspan>as</tspan>
</text>
</g>
<g transform="translate(58.3499, 45.0944)">
<text font-family="serif" font-size="1.7461" text-anchor="start" fill="currentColor">
<tspan>a</tspan>
</text>
</g>
<g transform="translate(59.7352, 45.0944)">
<text font-family="serif" font-size="1.7461" text-anchor="start" fill="currentColor">
<tspan>pedal</tspan>
</text>
</g>
<g transform="translate(64.1592, 45.0944)">
<text font-family="serif" font-size="1.7461" text-anchor="start" fill="currentColor">
<tspan>tone.</tspan>
</text>
</g>
</svg>
